<svg xmlns="http://www.w3.org/2000/svg" width="185.567" height="271.442" viewBox="0 0 185.567 271.442">
  <g id="patholgoy-logo" transform="translate(978.731 -3760.893)">
    <path id="path168" d="M970.134-1446.09a9.921,9.921,0,0,0-4.459,1.08,9.849,9.849,0,0,0-4.924,5.747,9.8,9.8,0,0,0,.579,7.533,9.851,9.851,0,0,0,5.745,4.933,9.908,9.908,0,0,0,12.463-6.333h0a9.788,9.788,0,0,0-.579-7.533,9.774,9.774,0,0,0-5.744-4.92,9.838,9.838,0,0,0-3.081-.507Zm0,25.733a15.765,15.765,0,0,1-4.911-.787,15.759,15.759,0,0,1-9.2-7.893,15.723,15.723,0,0,1-.928-12.08,15.839,15.839,0,0,1,19.972-10.133,15.859,15.859,0,0,1,10.129,19.973h0a15.873,15.873,0,0,1-15.061,10.92" transform="translate(-1836.456 5257.93)" fill="#211c1d"/>
    <path id="path170" d="M976.707-1434.05a6.9,6.9,0,0,1-8.708,4.413,6.9,6.9,0,0,1-4.417-8.707,6.9,6.9,0,0,1,8.708-4.413,6.9,6.9,0,0,1,4.417,8.707" transform="translate(-1836.456 5257.93)" fill="#0984e3"/>
    <path id="path172" d="M962.971-1480.01l11.021,3.613,3.605-11.027-11.024-3.613Zm12.927,10.347a2.824,2.824,0,0,1-.925-.16l-16.681-5.453a2.968,2.968,0,0,1-1.9-3.747l4.595-14.067a5.745,5.745,0,0,1,7.232-3.667l11.441,3.747a5.644,5.644,0,0,1,3.332,2.854,5.686,5.686,0,0,1,.336,4.373l-4.6,14.067a2.982,2.982,0,0,1-2.829,2.053" transform="translate(-1836.456 5257.93)" fill="#211c1d"/>
    <path id="path174" d="M921.848-1372.33l-.683,2.08,21.615,7.16h.021a.107.107,0,0,0,.089-.053l.68-2.094Zm20.953,15.653a6.64,6.64,0,0,1-2.015-.32l-21.557-7.053a6.5,6.5,0,0,1-4.159-8.187l1.679-5.133a3.2,3.2,0,0,1,4.043-2.053l27.817,9.093a3.2,3.2,0,0,1,2.052,4.04l-1.677,5.133a6.519,6.519,0,0,1-6.183,4.48" transform="translate(-1836.456 5257.93)" fill="#211c1d"/>
    <path id="path176" d="M863.351-1359.73l-1.04,3.187,77.236,21.96h0a.178.178,0,0,0,.164-.093l.869-3.093ZM939.591-1330a4.7,4.7,0,0,1-1.289-.181l-77.142-21.788a4.681,4.681,0,0,1-2.832-2.24,4.649,4.649,0,0,1-.421-3.573l.875-3.093a4.647,4.647,0,0,1,2.232-2.827,4.612,4.612,0,0,1,3.584-.427l77.138,21.787a4.684,4.684,0,0,1,2.832,2.24,4.675,4.675,0,0,1,.423,3.587l-.871,3.08a4.691,4.691,0,0,1-2.236,2.835,4.689,4.689,0,0,1-2.292.6" transform="translate(-1836.456 5257.93)" fill="#211c1d"/>
    <path id="path178" d="M965.738-1250.943h37.5v-37.284a18.769,18.769,0,0,0-18.749-18.749,18.771,18.771,0,0,0-18.751,18.749Zm40.707,6.413H962.531a3.207,3.207,0,0,1-3.207-3.207v-40.49a25.191,25.191,0,0,1,25.164-25.161,25.19,25.19,0,0,1,25.163,25.161v40.49a3.207,3.207,0,0,1-3.207,3.207" transform="translate(-1836.456 5257.93)" fill="#211c1d"/>
    <path id="path180" d="M947.614-1364.077a3.213,3.213,0,0,1-1-.16L918.8-1373.33a3.2,3.2,0,0,1-2.051-4.04l25.2-77.08a3.209,3.209,0,0,1,4.043-2.053,3.2,3.2,0,0,1,2.052,4.04l-24.2,74.04,21.724,7.093,16.64-50.893a16.005,16.005,0,0,1-6.387-6.707,15.954,15.954,0,0,1-.943-12.253,16.128,16.128,0,0,1,17.115-10.973l4.729-14.467a2.262,2.262,0,0,0-.135-1.733,2.257,2.257,0,0,0-1.317-1.12l-17.412-5.693a2.264,2.264,0,0,0-2.86,1.453l-2.029,6.2a3.21,3.21,0,0,1-4.045,2.053,3.2,3.2,0,0,1-2.051-4.04l2.031-6.213a8.685,8.685,0,0,1,10.947-5.547l17.413,5.693a8.682,8.682,0,0,1,5.553,10.947l-5.625,17.2a3.208,3.208,0,0,1-4.043,2.053,9.628,9.628,0,0,0-7.368.56,9.613,9.613,0,0,0-4.808,5.613,9.6,9.6,0,0,0,.567,7.373,9.585,9.585,0,0,0,5.608,4.8,3.21,3.21,0,0,1,1.864,1.6,3.19,3.19,0,0,1,.188,2.44l-18.535,56.693a3.2,3.2,0,0,1-1.6,1.867,3.243,3.243,0,0,1-1.449.347" transform="translate(-1836.456 5257.93)" fill="#211c1d"/>
    <path id="path182" d="M982.758-1433.983l2.932.507Zm21.2,130.209a25.009,25.009,0,0,1,3,4.752,74.7,74.7,0,0,0,30.16-60,74.883,74.883,0,0,0-52.276-71.253c-.092.227-.188.453-.289.667A71.178,71.178,0,0,1,1034-1361.837a70.935,70.935,0,0,1-30.044,58.062Zm1.6,12.359a2.967,2.967,0,0,1-1.015-.179,2.982,2.982,0,0,1-1.843-1.961,18.99,18.99,0,0,0-5.311-8.567,2.965,2.965,0,0,1-.939-2.448,2.98,2.98,0,0,1,1.361-2.241,65.048,65.048,0,0,0,30.237-55.025,65.231,65.231,0,0,0-48.875-63.133,2.98,2.98,0,0,1-2.093-1.987,2.972,2.972,0,0,1,.579-2.827,9.915,9.915,0,0,0,1.883-3.333,8.786,8.786,0,0,0,.251-1.173,3.222,3.222,0,0,1,1.353-2.107,3.075,3.075,0,0,1,2.4-.467,80.852,80.852,0,0,1,59.523,77.84,80.667,80.667,0,0,1-35.852,67.105,2.98,2.98,0,0,1-1.657.5" transform="translate(-1836.456 5257.93)" fill="#211c1d"/>
    <path id="path184" d="M994.808-1287.047a10.32,10.32,0,0,1-10.32,10.32,10.319,10.319,0,0,1-10.32-10.32,10.321,10.321,0,0,1,10.32-10.321,10.321,10.321,0,0,1,10.32,10.321" transform="translate(-1836.456 5257.93)" fill="#0984e3"/>
    <path id="path186" d="M901.676-1315.491a74.121,74.121,0,0,0,57.879,31.2v-3.933a23.942,23.942,0,0,1,.125-2.417,71.538,71.538,0,0,1-52.594-26.8A17.609,17.609,0,0,1,901.676-1315.491Zm60.653,37.2a80.175,80.175,0,0,1-68.657-38.5,2.975,2.975,0,0,1,.055-3.207,2.983,2.983,0,0,1,2.935-1.3,10.322,10.322,0,0,0,3.785-.027,11.7,11.7,0,0,0,5.407-2.46,2.987,2.987,0,0,1,2.261-.652,2.977,2.977,0,0,1,2.028,1.192,65.516,65.516,0,0,0,52.567,26.711c.076,0,.432-.024.465-.024a2.841,2.841,0,0,1,2.375,1.129,2.974,2.974,0,0,1,.552,2.569,19.194,19.194,0,0,0-.595,4.628v6.951a2.973,2.973,0,0,1-2.877,2.973c-.032,0-.267.013-.3.013" transform="translate(-1836.456 5257.93)" fill="#211c1d"/>
    <path id="path188" d="M890.879-1341.663a11.638,11.638,0,0,0-4.085,8.861,11.681,11.681,0,0,0,11.668,11.667A11.681,11.681,0,0,0,910.13-1332.8a11.312,11.312,0,0,0-.593-3.595Zm7.583,26.481a17.64,17.64,0,0,1-17.62-17.62,17.609,17.609,0,0,1,7.749-14.595,2.974,2.974,0,0,1,2.48-.4l11.787,3.32h0l9.711,2.747a3,3,0,0,1,1.9,1.627,17.525,17.525,0,0,1,1.615,7.3,17.64,17.64,0,0,1-17.62,17.62" transform="translate(-1836.456 5257.93)" fill="#211c1d"/>
    <path id="path190" d="M1026.844-1250.943H924.372a3.207,3.207,0,0,0-3.207,3.207h0a3.207,3.207,0,0,0,3.207,3.207h102.472a10.044,10.044,0,0,1,10.033,10.192,2.447,2.447,0,0,1-2.487,2.329H886.038a2.447,2.447,0,0,1-2.485-2.327,10.046,10.046,0,0,1,10.035-10.195h9.341a3.206,3.206,0,0,0,3.207-3.207h0a3.206,3.206,0,0,0-3.207-3.207h-9.341a16.467,16.467,0,0,0-16.447,16.66,8.868,8.868,0,0,0,8.9,8.688h148.353a8.871,8.871,0,0,0,8.9-8.689,16.467,16.467,0,0,0-16.447-16.659" transform="translate(-1836.456 5257.93)" fill="#211c1d"/>
  </g>
</svg>
